<svg width="58" height="40" viewBox="0 0 58 40" fill="none" xmlns="http://www.w3.org/2000/svg">
<path d="M0.5 0.5V4.04545H34.3438V30.6364H23.3784C22.5839 27.589 19.8301 25.3182 16.5312 25.3182C13.2324 25.3182 10.4786 27.589 9.68412 30.6364H7.625V21.7727H4.0625V34.1818H9.68412C10.4786 37.2291 13.2324 39.5 16.5312 39.5C19.8301 39.5 22.5839 37.2291 23.3784 34.1818H38.1841C38.9786 37.2291 41.7324 39.5 45.0312 39.5C48.3301 39.5 51.0839 37.2291 51.8784 34.1818H57.5V19.7235L57.3878 19.4451L53.8253 8.80877L53.4387 7.59091H37.9062V0.5H0.5ZM2.28125 7.59091V11.1364H18.3125V7.59091H2.28125ZM37.9062 11.1364H50.8755L53.9375 20.2216V30.6364H51.8784C51.0839 27.589 48.3301 25.3182 45.0312 25.3182C41.7324 25.3182 38.9786 27.589 38.1841 30.6364H37.9062V11.1364ZM4.0625 14.6818V18.2273H14.75V14.6818H4.0625ZM16.5312 28.8636C18.5209 28.8636 20.0938 30.429 20.0938 32.4091C20.0938 34.3892 18.5209 35.9545 16.5312 35.9545C14.5416 35.9545 12.9688 34.3892 12.9688 32.4091C12.9688 30.429 14.5416 28.8636 16.5312 28.8636ZM45.0312 28.8636C47.0209 28.8636 48.5938 30.429 48.5938 32.4091C48.5938 34.3892 47.0209 35.9545 45.0312 35.9545C43.0416 35.9545 41.4688 34.3892 41.4688 32.4091C41.4688 30.429 43.0416 28.8636 45.0312 28.8636Z" fill="black"/>
</svg>
